<svg xmlns="http://www.w3.org/2000/svg" width="256" height="256" viewBox="0 0 256 256">
	<!-- Mushroom Cap -->
	<path fill="#FF0000" d="M128,0C57.307,0,0,57.307,0,128c0,34.334,13.503,65.562,35.514,88.601 c3.903,4.059,10.18,4.128,14.238,0.225c4.059-3.903,4.128-10.18,0.225-14.238C26.364,184.706,13.875,156.052,13.875,128 c0-61.748,50.252-112,112-112s112,50.252,112,112c0,28.365-10.677,53.595-28.049,72.889c-3.854,4.639-3.508,11.505,0.774,15.359 c4.639,3.854,11.505,3.508,15.359-0.774C245.84,181.544,256,155.074,256,128C256,57.307,198.693,0,128,0z"/>
	<!-- Mushroom Stem -->
	<path fill="#009900" d="M119.467,232.003c-4.335,0-7.847-3.512-7.847-7.847V105.336c0-4.335,3.512-7.847,7.847-7.847 c4.335,0,7.847,3.512,7.847,7.847v118.82C127.314,228.491,123.802,232.003,119.467,232.003z"/>
</svg>
